<svg width="176" height="36" viewBox="0 0 176 36" fill="none" xmlns="http://www.w3.org/2000/svg">
<path fill-rule="evenodd" clip-rule="evenodd" d="M1.19232 33.9322C1.19232 34.6642 1.38463 34.8568 2.07694 34.8568H6.92309C7.65386 34.8568 7.80771 34.7027 7.80771 33.9707V0.990801C7.80771 0.335827 7.6154 0.143188 7.00001 0.143188C5.38463 0.143188 3.76924 0.143188 2.15386 0.143188C1.30771 0.143188 1.19232 0.297299 1.19232 1.14491C1.19232 1.14491 1.19232 28.4612 1.19232 33.9322Z" fill="#2A343E"/>
<path fill-rule="evenodd" clip-rule="evenodd" d="M159 9.62103C160.346 9.54398 161.577 9.46692 162.846 9.42839C164.615 9.38987 166.423 9.38986 168.192 9.69809C171.462 10.276 173.385 12.0868 174.154 15.3232C174.538 16.9799 174.692 18.6751 174.731 20.3703C174.808 22.9902 174.808 25.6101 174.308 28.23C173.962 30.0023 173.346 31.659 171.923 32.8919C170.846 33.8165 169.577 34.2404 168.231 34.5101C166.462 34.8568 164.654 34.9724 162.846 34.8953C160.731 34.8183 158.577 34.6642 156.462 34.5101C155.385 34.433 154.346 34.2404 153.269 34.0862C152.692 34.0092 152.462 33.701 152.385 33.123C152.346 32.9304 152.346 32.7763 152.346 32.5837C152.346 22.1426 152.346 11.7015 152.346 1.22195C152.346 1.10637 152.346 0.990785 152.346 0.875202C152.385 0.143172 152.5 0.0275879 153.269 0.0275879H158C158.846 0.0275879 158.962 0.143172 158.962 0.990785C158.962 3.68774 158.962 6.38469 158.962 9.04311V9.62103H159ZM159 28.9235C161.077 29.1547 163.115 29.3858 165.192 29.0776C166.308 28.9235 167.192 28.3456 167.577 27.2668C167.769 26.7274 167.923 26.1495 167.962 25.5716C168.039 23.6067 168.038 21.6803 168.038 19.7153C168.038 19.1374 167.923 18.5595 167.808 17.9816C167.423 16.2093 166.5 15.4002 164.692 15.3232C162.846 15.2461 161.038 15.2461 159.192 15.2076C159.154 15.2076 159.077 15.2461 159 15.2461V28.9235Z" fill="#F00843"/>
<path fill-rule="evenodd" clip-rule="evenodd" d="M76.077 19.9851C76.077 19.176 76.1539 18.3669 76.077 17.5963C75.8846 16.3634 74.9231 15.5929 73.5385 15.4002C72.9231 15.3232 72.2693 15.2846 71.6154 15.2846C69.1539 15.2846 66.7308 15.2846 64.2693 15.2846C63.2308 15.2846 63.1923 15.2461 63.1923 14.2444C63.1923 13.1656 63.1923 12.0868 63.1923 10.9695C63.1923 10.5072 63.3846 10.276 63.8462 10.199C67.5769 9.50547 71.3077 9.38988 75.0769 9.6981C76.6539 9.81369 78.1539 10.1604 79.5769 10.8539C81.3846 11.7786 82.3462 13.3197 82.6154 15.2846C82.7308 16.0167 82.7693 16.7872 82.7693 17.5578C82.7693 22.4894 82.7693 27.3824 82.7693 32.314C82.7693 32.4296 82.7693 32.5066 82.7693 32.5837C82.7308 33.701 82.3846 34.0092 81.3077 34.2404C78.1539 34.8568 74.9231 35.0495 71.6923 35.088C69.8846 35.088 68.0385 35.0495 66.2308 34.7027C63.6923 34.2018 62.077 32.7378 61.577 30.1564C61.1923 28.153 61.1539 26.111 61.7308 24.1461C62.3462 22.1041 63.8077 20.9097 65.8462 20.4859C67.0769 20.2162 68.3846 20.1006 69.6539 20.0236C71.6539 19.9465 73.6154 20.0236 75.6154 19.9851H76.077ZM76.1154 24.3772C74.0385 24.3772 72 24.3002 69.9231 24.3772C68.6923 24.4158 68.077 25.1093 67.9231 26.3036C67.8462 26.766 67.8846 27.3054 67.9616 27.7677C68.0769 28.6924 68.6539 29.2703 69.5769 29.4629C70.2308 29.5785 70.8846 29.6556 71.577 29.6556C73.1154 29.6941 74.6539 29.5785 76.1539 29.2317V24.3772H76.1154Z" fill="#2A343E"/>
<path fill-rule="evenodd" clip-rule="evenodd" d="M48.4231 15.3232C47.3462 15.3617 46.2692 15.6314 45.6154 16.6331C45.1154 17.3266 44.9615 18.1742 44.8846 18.9833C44.6923 21.1794 44.6923 23.414 44.8846 25.6101C44.9615 26.5733 45.1539 27.5365 45.8846 28.3071C46.5769 29.0776 47.5 29.3088 48.4615 29.3088C51.0385 29.3473 53.5769 29.3473 56.1539 29.3859C56.3077 29.3859 56.4615 29.3859 56.6154 29.3859C57.3846 29.4244 57.5385 29.5785 57.5769 30.3491C57.5769 31.3893 57.5769 32.4296 57.5769 33.4313C57.5769 34.1633 57.3462 34.3945 56.6154 34.5486C53.5769 35.1265 50.5 35.2036 47.3846 35.088C45.5385 35.0109 43.6923 34.7798 42 33.9322C40.6154 33.2387 39.6923 32.1213 39.1154 30.6958C38.4231 28.9621 38.1923 27.1127 38.1923 25.2634C38.1539 22.6435 38.2308 19.9851 38.3462 17.3652C38.4231 15.9396 38.7692 14.5526 39.4615 13.2427C40.1923 11.8557 41.3077 10.931 42.7692 10.3916C44.2308 9.85222 45.7308 9.65958 47.2692 9.58253C49.8846 9.46695 52.5 9.50547 55.0769 9.85222C55.6539 9.92928 56.2308 10.0063 56.8077 10.1219C57.2692 10.199 57.5385 10.4687 57.5385 10.931C57.5385 12.1254 57.5385 13.3583 57.5385 14.5526C57.5385 15.015 57.3077 15.2461 56.8462 15.2461H52.5C52.5 15.2461 49.7692 15.2847 48.4231 15.3232Z" fill="#2A343E"/>
<path fill-rule="evenodd" clip-rule="evenodd" d="M132.846 24.4928C133 25.4175 133.077 26.2266 133.269 27.0356C133.577 28.3456 134.577 28.9235 135.846 29.0776C136.692 29.1547 137.538 29.2317 138.385 29.2317C140.769 29.2317 143.192 29.2317 145.577 29.2317C146.462 29.2317 146.577 29.3858 146.577 30.2335C146.577 31.3122 146.577 32.3525 146.577 33.4313C146.577 34.1248 146.423 34.2789 145.731 34.3945C142.269 35.0109 138.769 35.0494 135.269 34.8953C133.769 34.8568 132.231 34.6256 130.808 34.0477C128.615 33.2001 127.423 31.4664 126.846 29.2703C126.423 27.6906 126.231 26.0724 126.231 24.4543C126.231 22.1426 126.269 19.7924 126.423 17.4807C126.5 16.1323 126.846 14.7838 127.385 13.5509C128.308 11.5089 129.962 10.3916 132.077 9.89073C135 9.23576 138 9.23576 140.962 9.62104C141.962 9.73662 143 9.96779 143.923 10.3145C146 11.0851 147.115 12.7418 147.692 14.7838C148.192 16.5561 148.308 18.4054 148.385 20.2162C148.423 21.2565 148.385 22.2967 148.385 23.337C148.385 24.069 148.115 24.3387 147.385 24.4158C147.077 24.4543 146.769 24.4543 146.462 24.4543C142.154 24.4543 137.846 24.4543 133.538 24.4543H132.846V24.4928ZM141.846 20.1006C141.731 19.1374 141.615 18.2513 141.423 17.3651C141.231 16.4405 140.615 15.747 139.692 15.4773C138.154 15.0149 136.615 15.0535 135.077 15.4773C134.5 15.6314 134.038 15.9781 133.692 16.479C132.962 17.5963 132.923 18.8677 132.923 20.1392H141.846V20.1006Z" fill="#F00843"/>
<path fill-rule="evenodd" clip-rule="evenodd" d="M34.3846 20.9483C34.3462 19.0604 34.2308 17.0955 33.7308 15.1305C33.1539 13.0115 32 11.3548 29.9231 10.4687C28.7692 9.96781 27.5 9.73664 26.2308 9.65958C24.5 9.58253 22.7308 9.544 21 9.58253C19.4231 9.62106 17.8846 9.8137 16.3846 10.3531C14.8846 10.8925 13.7308 11.8557 12.9616 13.2812C12.1154 14.8994 11.8077 16.6717 11.6923 18.4825C11.5769 20.563 11.5385 22.6435 11.6154 24.724C11.6539 26.188 11.8846 27.6136 12.1539 29.0776C12.3846 30.4261 12.9616 31.6975 13.9231 32.6993C15.1539 33.9707 16.7692 34.5101 18.4616 34.7798C20.6539 35.1265 22.8846 35.1265 25.1154 35.0109C26.6154 34.9339 28.1154 34.7412 29.5385 34.2404C30.6923 33.8166 31.6539 33.1616 32.3846 32.1984C33.1923 31.1196 33.5769 29.9253 33.8462 28.6538C34.2308 26.8816 34.3077 25.1093 34.3077 23.2214L34.3846 20.9483ZM27.7692 23.2214C27.6923 24.2617 27.6154 25.379 27.4231 26.4577C27.1154 28.1915 26.3077 28.9235 24.5769 29.2318C23.4231 29.4244 22.2308 29.4244 21.0769 29.1932C19.5769 28.885 18.8077 28.0374 18.5 26.4192C18.1539 24.3772 18.1923 22.2967 18.2692 20.2162C18.3077 19.5998 18.3846 18.9833 18.4616 18.4054C18.8077 16.4405 19.5769 15.5929 21.5385 15.4002C22.6539 15.2847 23.8077 15.3232 24.9231 15.4773C26.4616 15.7085 27.2692 16.7102 27.5 18.521C27.6539 19.5998 27.6923 20.7171 27.7692 21.9115V23.2214Z" fill="#2A343E"/>
<path d="M92.5 10.5457C92.3846 10.0063 92.2692 9.77515 91.8461 9.77515H91.8077C91.7692 9.77515 91.7692 9.77515 91.7308 9.77515C90.8461 9.77515 88.0384 9.77515 86.7692 9.77515C86.5769 9.77515 86.4231 9.77515 86.3077 9.77515C86.2307 9.77515 86.1538 9.77515 86.0769 9.77515H86.0384H86C85.9615 9.77515 85.9231 9.77515 85.8846 9.77515C85.8846 9.77515 85.8846 9.77515 85.8461 9.77515C85.8077 9.77515 85.8077 9.77515 85.7692 9.81367C85.7308 9.81367 85.7307 9.8522 85.7307 9.8522L85.6923 9.89073C85.6923 9.89073 85.6923 9.92926 85.6538 9.92926C85.6538 9.96779 85.6154 9.96779 85.6154 10.0063C85.6154 10.0063 85.6154 10.0448 85.5769 10.0834C85.5769 10.1219 85.5769 10.1604 85.5769 10.1604C85.5769 10.1604 85.5769 10.199 85.5769 10.2375C85.5769 10.3145 85.5769 10.3916 85.6154 10.4686C85.6154 10.5842 85.6538 10.6998 85.6923 10.8154C86 11.9327 87.5769 17.6734 89.0384 22.9132C89.0384 22.9517 89.0384 22.9517 89.0769 22.9902C90.3846 27.6521 91.5769 32.0057 91.6923 32.391C92.1538 33.7395 93.0769 34.8568 94.5384 34.8568C94.5384 34.8568 95.6154 30.9655 96.8846 26.3036C94.9615 19.5998 92.6538 11.2007 92.5 10.5457Z" fill="#2A343E"/>
<path d="M108.192 10.3916C108.192 10.3145 108.154 10.276 108.154 10.1989C108.115 10.0834 108.077 10.0063 108.038 9.96777C108.038 9.96777 108.038 9.96777 108.038 9.92925L108 9.89072C108 9.89072 108 9.92925 108.038 9.92925C108.038 9.96777 108.077 9.96777 108.077 10.0063C108.077 10.0063 108.077 10.0448 108.115 10.0834C108.115 10.1219 108.115 10.1604 108.115 10.1604C108.115 10.1604 108.115 10.1989 108.115 10.2375C108.115 10.3145 108.115 10.3916 108.077 10.4686C108.077 10.5842 108.038 10.6998 108 10.8154C107.692 11.9327 106.154 17.5963 104.692 22.7976C104.692 22.8361 104.692 22.8746 104.731 22.9131C104.731 22.9517 104.731 22.9517 104.769 22.9902C106.077 27.6521 107.269 32.0057 107.385 32.391C107.846 33.7395 108.769 34.8568 110.231 34.8568C110.231 34.8568 110.731 33.046 111.423 30.4646C111.692 29.4244 112.038 28.2685 112.346 27.0742C112.423 26.843 112.462 26.6118 112.538 26.3421C110.731 19.8309 108.5 11.5474 108.192 10.3916Z" fill="#2A343E"/>
<path d="M123.846 10.1989C123.846 10.1604 123.846 10.1604 123.846 10.1219C123.846 10.0834 123.846 10.0448 123.808 10.0448C123.808 10.0063 123.769 10.0063 123.769 9.96777C123.769 9.96777 123.769 9.92924 123.731 9.92924L123.692 9.89071L123.654 9.85219C123.615 9.85219 123.615 9.81366 123.577 9.81366C123.577 9.81366 123.577 9.81366 123.538 9.81366C123.5 9.81366 123.462 9.81366 123.423 9.81366C123.385 9.81366 123.385 9.81366 123.385 9.81366H123.346C123.269 9.81366 123.231 9.81366 123.115 9.81366C123 9.81366 122.846 9.81366 122.654 9.81366C121.385 9.81366 118.615 9.81366 117.692 9.81366C117.654 9.81366 117.654 9.81366 117.615 9.81366H117.577C117.154 9.85219 117.038 10.0834 116.923 10.5842C116.769 11.2392 114.462 19.6768 112.577 26.4577C112.5 26.6889 112.462 26.9586 112.385 27.1897C112.038 28.4226 111.731 29.5785 111.462 30.5802C110.731 33.2001 110.269 34.9724 110.269 34.9724H114.923C116.385 34.9724 117.346 33.8551 117.769 32.5066C117.885 32.1213 119.115 27.7677 120.385 23.1058C120.385 23.0673 120.385 23.0673 120.423 23.0287C121.885 17.7889 123.462 12.0483 123.769 10.931C123.808 10.8154 123.846 10.6998 123.846 10.5842C123.846 10.5072 123.885 10.4301 123.885 10.3531C123.846 10.2375 123.846 10.1989 123.846 10.1989Z" fill="#F00843"/>
<path d="M108.115 10.1989C108.115 10.1604 108.115 10.1604 108.115 10.1219C108.115 10.0834 108.115 10.0448 108.077 10.0448C108.077 10.0063 108.038 10.0063 108.038 9.96777C108.038 9.96777 108.038 9.92924 108 9.92924L107.962 9.89071L107.923 9.85219C107.885 9.85219 107.885 9.81366 107.846 9.81366C107.846 9.81366 107.846 9.81366 107.808 9.81366C107.769 9.81366 107.731 9.81366 107.692 9.81366C107.654 9.81366 107.654 9.81366 107.654 9.81366H107.615C107.538 9.81366 107.5 9.81366 107.385 9.81366C107.269 9.81366 107.115 9.81366 106.923 9.81366C105.654 9.81366 102.885 9.81366 101.962 9.81366C101.923 9.81366 101.923 9.81366 101.885 9.81366H101.846C101.423 9.85219 101.308 10.0834 101.192 10.5842C101.038 11.2392 98.7308 19.6768 96.8462 26.4192C95.5769 31.0811 94.5 34.9338 94.5 34.9724C94.5 34.9724 94.5 34.9724 94.5385 34.9724H99.1923C99.1923 34.9724 99.1923 34.9724 99.2308 34.9724C100.692 34.9724 101.615 33.8551 102.077 32.5066C102.192 32.1213 103.423 27.7677 104.692 23.1058C104.692 23.0673 104.692 23.0673 104.731 23.0287C106.192 17.7889 107.769 12.0483 108.077 10.931C108.115 10.8154 108.154 10.6998 108.154 10.5842C108.154 10.5072 108.192 10.4301 108.192 10.3531C108.115 10.2375 108.115 10.1989 108.115 10.1989Z" fill="#F00843"/>
</svg>
